<?xml version="1.0" encoding="UTF-8" standalone="no"?>
<!-- Created with Inkscape (http://www.inkscape.org/) -->

<svg
   xmlns:dc="http://purl.org/dc/elements/1.1/"
   xmlns:cc="http://creativecommons.org/ns#"
   xmlns:rdf="http://www.w3.org/1999/02/22-rdf-syntax-ns#"
   xmlns:svg="http://www.w3.org/2000/svg"
   xmlns="http://www.w3.org/2000/svg"
   version="1.1"
   width="100%"
   height="100%"
   viewBox="0 0 48 48"
   id="Icon"
   xml:space="preserve"><metadata
   id="metadata14382"><rdf:RDF><cc:Work
       rdf:about=""><dc:format>image/svg+xml</dc:format><dc:type
         rdf:resource="http://purl.org/dc/dcmitype/StillImage" /><dc:title></dc:title></cc:Work></rdf:RDF></metadata><defs
   id="defs14380" />
<linearGradient
   x1="23.9995"
   y1="0"
   x2="23.9995"
   y2="48.0005"
   id="SVGID_1_"
   gradientUnits="userSpaceOnUse">
	<stop
   id="stop14364"
   style="stop-color:#e16d35;stop-opacity:1"
   offset="0" />
	<stop
   id="stop14366"
   style="stop-color:#c93d1d;stop-opacity:1"
   offset="1" />
</linearGradient>
<path
   d="M 6,0 C 2.687,0 0,2.687 0,6 l 0,36 c 0,3.313 2.687,6 6,6 l 36,0 c 3.313,0 6,-2.687 6,-6 L 48,6 C 48,2.687 45.313,0 42,0 L 6,0 z m 14.21875,11.84375 c 0.537,0 1.093,0.04925 1.625,0.15625 0.532,0.107 1.075,0.23925 1.625,0.40625 l 6.15625,0 0,1.71875 -4.15625,0 0,0.125 c 0.442,0.514 0.785,1.0665 1,1.6875 0.215,0.622 0.3125,1.24675 0.3125,1.84375 0,1.554 -0.64525,2.8615 -1.90625,3.9375 -1.261,1.075 -2.702,1.59375 -4.375,1.59375 l -2.1875,0 c -0.275,0.096 -0.54475,0.28125 -0.84375,0.53125 C 17.16975,24.09375 17,24.445 17,24.875 c 0,0.443 0.124,0.768 0.375,1 0.251,0.234 0.5785,0.38475 0.9375,0.46875 0.346,0.096 0.7275,0.1645 1.1875,0.1875 0.46,0.025 0.9475,0.0505 1.4375,0.0625 0.526,0.011 1.24125,0.03375 2.15625,0.09375 0.914,0.059 1.5545,0.113 1.9375,0.125 0.55,0.024 1.10025,0.136 1.65625,0.375 0.556,0.239 1.07725,0.583 1.53125,1 0.478,0.455 0.85,0.95825 1.125,1.53125 0.274,0.574 0.40625,1.30725 0.40625,2.15625 0,0.849 -0.1925,1.628 -0.5625,2.375 -0.372,0.747 -0.9345,1.3875 -1.6875,1.9375 -0.801,0.562 -1.73175,1.0015 -2.84375,1.3125 -1.112,0.311 -2.488,0.46875 -4.125,0.46875 -2.677,0 -4.70525,-0.37225 -6.03125,-1.15625 -1.326,-0.784 -1.96875,-1.9315 -1.96875,-3.4375 0,-1.22 0.4815,-2.20125 1.4375,-2.90625 0.956,-0.705 2.17425,-1.064 3.65625,-1.125 l 0,-0.25 C 17.267,28.98675 16.882,28.8485 16.5,28.6875 16.117,28.5265 15.80625,28.34 15.53125,28.125 c -0.311,-0.251 -0.559,-0.56525 -0.75,-0.90625 -0.191,-0.341 -0.3125,-0.748 -0.3125,-1.25 0,-0.634 0.2395,-1.218 0.6875,-1.75 0.449,-0.531 1.12325,-0.993 2.03125,-1.375 l 0,-0.28125 C 16.0395,22.0245 15.133,21.343 14.5,20.5 c -0.634,-0.842 -0.9375,-1.8255 -0.9375,-2.9375 0,-1.673 0.626,-3.049 1.875,-4.125 1.248,-1.076 2.83325,-1.59375 4.78125,-1.59375 z m 13.4375,0.96875 1.375,0 0,3.53125 3.46875,0 0,1.34375 -3.46875,0 0,3.5 -1.375,0 0,-3.5 -3.5,0 0,-1.34375 3.5,0 0,-3.53125 z M 20.125,13.09375 c -0.562,0 -1.0375,0.142 -1.4375,0.375 -0.4,0.233 -0.71775,0.53875 -0.96875,0.96875 -0.24,0.394 -0.43025,0.8815 -0.53125,1.4375 -0.101,0.556 -0.15625,1.13375 -0.15625,1.71875 0,1.327 0.295,2.414 0.875,3.25 0.58,0.837 1.33,1.25 2.25,1.25 1.027,0 1.819,-0.419 2.375,-1.25 0.556,-0.831 0.84375,-1.88925 0.84375,-3.15625 0,-1.398 -0.27675,-2.51275 -0.84375,-3.34375 -0.568,-0.83 -1.37925,-1.25 -2.40625,-1.25 z M 19.25,29.75 c -1.291,0.251 -2.207,0.658 -2.75,1.25 -0.544,0.592 -0.8125,1.34925 -0.8125,2.28125 0,0.419 0.071,0.83675 0.25,1.21875 0.179,0.383 0.4955,0.7405 0.9375,1.0625 0.418,0.312 0.9825,0.553 1.6875,0.75 0.706,0.196 1.57775,0.3125 2.59375,0.3125 1.756,0 3.14625,-0.35525 4.15625,-1.03125 1.01,-0.675 1.498,-1.6885 1.5,-3.0625 0,-0.67 -0.15775,-1.22525 -0.46875,-1.65625 C 26.03175,30.444 25.5705,30.155 24.9375,30 24.6025,29.953 23.915,29.90475 22.875,29.84375 21.836,29.78375 20.624,29.75 19.25,29.75 z"
   id="path14368"
   style="fill:#000000;fill-opacity:1" />




</svg>