<?xml version="1.0" encoding="UTF-8" standalone="no"?>
<!-- Created with Inkscape (http://www.inkscape.org/) -->

<svg
   xmlns:dc="http://purl.org/dc/elements/1.1/"
   xmlns:cc="http://creativecommons.org/ns#"
   xmlns:rdf="http://www.w3.org/1999/02/22-rdf-syntax-ns#"
   xmlns:svg="http://www.w3.org/2000/svg"
   xmlns="http://www.w3.org/2000/svg"
   version="1.1"
   width="100%"
   height="100%"
   viewBox="456 256 48 48"
   id="Icon"
   xml:space="preserve"><metadata
   id="metadata13243"><rdf:RDF><cc:Work
       rdf:about=""><dc:format>image/svg+xml</dc:format><dc:type
         rdf:resource="http://purl.org/dc/dcmitype/StillImage" /><dc:title></dc:title></cc:Work></rdf:RDF></metadata><defs
   id="defs13241" />
<linearGradient
   x1="351.34619"
   y1="312.8555"
   x2="351.34619"
   y2="301.3555"
   id="SVGID_1_"
   gradientUnits="userSpaceOnUse"
   gradientTransform="matrix(4.1667,0,0,-4.1667,-1439.9935,1303.6541)">
	<stop
   id="stop13213"
   style="stop-color:#3eabba;stop-opacity:1"
   offset="0" />
	<stop
   id="stop13215"
   style="stop-color:#3ea4aa;stop-opacity:1"
   offset="0.25119999" />
	<stop
   id="stop13217"
   style="stop-color:#3e937f;stop-opacity:1"
   offset="0.74229997" />
	<stop
   id="stop13219"
   style="stop-color:#3e927c;stop-opacity:1"
   offset="0.77869999" />
</linearGradient>
<path
   d="m 6,0.09375 c -3.308,0 -6,2.66175 -6,5.96875 L 0,42 c 0,3.306 2.692,6 6,6 l 35.9375,0 c 3.306,0 5.96875,-2.693 5.96875,-6 l 0,-35.9375 c 0,-3.307 -2.66175,-5.96875 -5.96875,-5.96875 L 6,0.09375 z M 15.84375,10.75 32.28125,20.09375 28.75,23.71875 15.84375,10.75 z M 14.3125,10.90625 27.75,24.5625 14.625,37.59375 c -1.037,-0.259 -0.96875,-1.25 -0.96875,-1.25 l 0,-24.09375 c 0,-1.036 0.65625,-1.34375 0.65625,-1.34375 z M 33.28125,20.75 37.8125,23.09375 c 0,0 0.84375,0.4475 0.84375,1.0625 0,0.615 -0.4885,1.08625 -0.8125,1.28125 -0.324,0.194 -4.8125,2.59375 -4.8125,2.59375 L 29.6875,24.6875 33.28125,20.75 z m -4.5625,4.9375 2.90625,3.125 L 17.90625,36.5 28.71875,25.6875 z"
   transform="translate(456,256)"
   id="path13221"
   style="fill:#000000;fill-opacity:1" />








</svg>