<?xml version="1.0" encoding="UTF-8" standalone="no"?>
<!-- Created with Inkscape (http://www.inkscape.org/) -->

<svg
   xmlns:dc="http://purl.org/dc/elements/1.1/"
   xmlns:cc="http://creativecommons.org/ns#"
   xmlns:rdf="http://www.w3.org/1999/02/22-rdf-syntax-ns#"
   xmlns:svg="http://www.w3.org/2000/svg"
   xmlns="http://www.w3.org/2000/svg"
   version="1.1"
   width="100%"
   height="100%"
   viewBox="0 0 48 48"
   id="Icon"
   xml:space="preserve"><metadata
   id="metadata10564"><rdf:RDF><cc:Work
       rdf:about=""><dc:format>image/svg+xml</dc:format><dc:type
         rdf:resource="http://purl.org/dc/dcmitype/StillImage" /><dc:title></dc:title></cc:Work></rdf:RDF></metadata><defs
   id="defs10562" />
<linearGradient
   x1="23.9995"
   y1="0"
   x2="23.9995"
   y2="48.0005"
   id="SVGID_1_"
   gradientUnits="userSpaceOnUse">
	<stop
   id="stop10550"
   style="stop-color:#4bd0ef;stop-opacity:1"
   offset="0" />
	<stop
   id="stop10552"
   style="stop-color:#29aae1;stop-opacity:1"
   offset="1" />
</linearGradient>
<path
   d="M 6,0 C 2.687,0 0,2.687 0,6 l 0,36 c 0,3.313 2.687,6 6,6 l 36,0 c 3.313,0 6,-2.687 6,-6 L 48,6 C 48,2.687 45.313,0 42,0 L 6,0 z m 24.875,11.8125 c 1.797,0 3.4235,0.75475 4.5625,1.96875 1.425,-0.28 2.7315,-0.784 3.9375,-1.5 -0.467,1.458 -1.42775,2.6645 -2.71875,3.4375 1.265,-0.151 2.4425,-0.47175 3.5625,-0.96875 -0.837,1.253 -1.86975,2.33375 -3.09375,3.21875 0.013,0.268 0,0.5415 0,0.8125 0,8.255 -6.29125,17.78125 -17.78125,17.78125 -3.528,0 -6.7975,-1.0395 -9.5625,-2.8125 0.489,0.059 0.996,0.09375 1.5,0.09375 2.926,0 5.612,-1.0115 7.75,-2.6875 -2.733,-0.051 -5.04875,-1.86275 -5.84375,-4.34375 0.382,0.072 0.7845,0.125 1.1875,0.125 0.57,0 1.1,-0.07475 1.625,-0.21875 -2.858,-0.574 -5,-3.098 -5,-6.125 L 11,20.5 c 0.843,0.468 1.81975,0.74925 2.84375,0.78125 -1.676,-1.12 -2.78125,-3.0205 -2.78125,-5.1875 0,-1.145 0.30575,-2.202 0.84375,-3.125 3.081,3.779 7.683,6.239 12.875,6.5 -0.106,-0.458 -0.15625,-0.91725 -0.15625,-1.40625 0,-3.451 2.801,-6.25 6.25,-6.25 z"
   id="path10554"
   style="fill:#000000;fill-opacity:1" />


</svg>